<?xml version="1.0" encoding="utf-8"?>
<!-- Generator: Adobe Illustrator 24.0.0, SVG Export Plug-In . SVG Version: 6.00 Build 0)  -->
<svg version="1.1" id="レイヤー_1" xmlns="http://www.w3.org/2000/svg" xmlns:xlink="http://www.w3.org/1999/xlink" x="0px"
	 y="0px" viewBox="0 0 182 49" style="enable-background:new 0 0 182 49;" xml:space="preserve">
<style type="text/css">
	.st0{fill:none;}
	.st1{fill-rule:evenodd;clip-rule:evenodd;fill:#FF0211;}
	.st2{fill:#222222;}
	.st3{fill:#4DC9FF;}
	.st4{fill:#FFFFFF;}
</style>
<title>Mercari</title>
<g id="mercari-logo">
	<g>
		<rect class="st0" width="182" height="49"/>
		<path class="st1" d="M42.7,14.1v21c0,1.4-0.8,2.6-2,3.2l-17.8,8.6c-1,0.5-2.1,0.5-3.1,0L9.2,41.8L2,38.3c-1.2-0.6-2-1.8-2-3.2v-21
			c0-1.3,0.8-2.6,2-3.1l17.8-8.9c1-0.5,2.2-0.5,3.2,0L40.7,11C41.9,11.6,42.6,12.8,42.7,14.1z"/>
		<rect x="177.4" y="17.1" class="st2" width="4.4" height="18.6"/>
		<path class="st2" d="M130.8,32.2c-3.7,0-5.8-2.3-5.8-5.5s1.7-5.7,5.5-5.7c2,0,3.9,0.5,5.7,1.4v-4.1c-1.8-0.8-3.8-1.2-5.8-1.2
			c-5.9,0-9.7,4.1-9.7,9.6s4.1,9.2,10,9.2c2,0,4-0.4,5.9-1.2v-4C134.8,31.6,132.8,32.1,130.8,32.2z"/>
		<path class="st2" d="M74,17.1c-2.3-0.1-4.5,1-5.9,2.9c-1.4-1.9-3.7-2.9-6-2.9c-4.7,0-8,3.6-8,8.3v10.3h4.3V25c0-2.3,1.4-4,3.7-4
			c2.1-0.1,3.8,1.6,3.9,3.7c0,0.1,0,0.2,0,0.3v10.8h4.2V25c-0.2-2,1.3-3.8,3.4-4c0.1,0,0.3,0,0.4,0c2.1-0.1,3.8,1.6,3.9,3.7
			c0,0.1,0,0.2,0,0.3v10.8h4.3V25.4c0.2-4.4-3.2-8.1-7.7-8.3C74.4,17.1,74.2,17.1,74,17.1z"/>
		<circle class="st2" cx="179.6" cy="12.7" r="2.4"/>
		<path class="st2" d="M149.5,17.1c-5-0.2-9.3,3.7-9.5,8.8c0,0.2,0,0.4,0,0.6c0,5.5,3.7,9.4,9.1,9.4c2.3,0.1,4.4-1.1,5.4-3.2v3h4.3
			v-9.2C158.8,20.8,155.2,17.1,149.5,17.1z M149.5,32.1c-3.1,0-5.1-2.1-5.1-5.6c0-3.2,2.2-5.6,5.1-5.6c3.1,0,5,2.2,5,5.6
			C154.4,29.2,152.7,32.1,149.5,32.1L149.5,32.1z"/>
		<path class="st2" d="M116.3,21c-2.3,0-3.7,2-3.7,4.5v10.2h-4.3V25.4c0-4.8,3.3-8.3,8-8.3h1.6V21H116.3z"/>
		<path class="st2" d="M171.4,21c-2.4,0-3.7,2-3.7,4.5v10.2h-4.3V25.4c0-4.8,3.3-8.3,8-8.3h1.6V21H171.4z"/>
		<path class="st2" d="M95.5,17.1c-5.1,0-9.2,4-9.2,9.1c0,0.1,0,0.2,0,0.4c0,5.9,4.2,9.3,10,9.3c2.3,0,4.6-0.4,6.8-1.2v-3.8
			c-2.1,0.8-4.3,1.3-6.6,1.4c-3.2,0-5.4-1.4-5.9-4.3h13c0.1-0.7,0.1-1.4,0.1-2.1C103.8,21.2,100.2,17.3,95.5,17.1z M90.6,24.6
			c0.4-2.6,2.9-4.3,5.5-3.9c2,0.3,3.6,1.9,3.9,3.9H90.6z"/>
		<circle class="st3" cx="36" cy="14.6" r="9.6"/>
		<path class="st4" d="M5.9,32.2l-1.9-1v-5.5c0-1.6,0.9-3.2,2.8-3c1.6,0.3,2.9,1.3,3.5,2.8c0.6-0.5,1.4-0.8,2.1-0.6
			c1,0.1,4.6,1.5,4.6,6.4v6.5l-2.1-1v-6.1c0.1-1.6-1-3.1-2.6-3.4c-0.6-0.1-1.1,0.4-1.1,1.5s0,6.2,0,6.2l-1.9-0.9v-5.8
			c0-2.5-1.7-3.3-2.4-3.4c-0.4,0-1.2,0.2-1.2,1.5v5.8H5.9z"/>
	</g>
</g>
</svg>
